<svg xmlns="http://www.w3.org/2000/svg" viewBox="0 0 128 128">
  <circle cx="64" cy="64" r="60" fill="#0066cc" stroke="#C4A35A" stroke-width="6"/>
  <g transform="translate(30,22) scale(0.696)" fill="#ffffff">
    <path d="M66 108.20L66 108.20Q64.70 108.20 63.85 107.40Q63 106.60 63 105.30L63 105.30L63 91.10L41.60 91.10Q40.60 91.10 39.85 90.30Q39.10 89.50 39.10 88.50L39.10 88.50Q39.10 87.40 39.85 86.65Q40.60 85.90 41.60 85.90L41.60 85.90L63 85.90L63 78.50L39.30 78.50Q38.30 78.50 37.55 77.65Q36.80 76.80 36.80 75.80L36.80 75.80Q36.80 74.80 37.55 74Q38.30 73.20 39.30 73.20L39.30 73.20L53.90 73.20Q53 71 51.90 68.40Q50.80 65.80 50 64L50 64L37 64Q36 64 35.25 63.20Q34.50 62.40 34.50 61.40L34.50 61.40Q34.50 60.30 35.25 59.55Q36 58.80 37 58.80L37 58.80L63 58.80L63 51.70L42.80 51.70Q41.80 51.70 41.05 50.90Q40.30 50.10 40.30 49.10L40.30 49.10Q40.30 48 41.05 47.25Q41.80 46.50 42.80 46.50L42.80 46.50L63 46.50L63 39.50L51.20 39.50Q45.10 39.50 42.55 37.45Q40 35.40 40 29.60L40 29.60Q40 23.70 42.55 21.65Q45.10 19.60 51.20 19.60L51.20 19.60L80.70 19.60Q86.90 19.60 89.45 21.65Q92 23.70 92 29.60L92 29.60Q92 35.40 89.45 37.45Q86.90 39.50 80.70 39.50L80.70 39.50L69 39.50L69 46.50L89.10 46.50Q90.20 46.50 90.90 47.25Q91.60 48 91.60 49.10L91.60 49.10Q91.60 50.10 90.90 50.90Q90.20 51.70 89.10 51.70L89.10 51.70L69 51.70L69 58.80L94.60 58.80Q95.60 58.80 96.35 59.55Q97.10 60.30 97.10 61.40L97.10 61.40Q97.10 62.40 96.35 63.20Q95.60 64 94.60 64L94.60 64L82.20 64Q81.50 65.80 80.35 68.45Q79.20 71.10 78.20 73.20L78.20 73.20L92.60 73.20Q93.70 73.20 94.40 74Q95.10 74.80 95.10 75.80L95.10 75.80Q95.10 76.80 94.40 77.65Q93.70 78.50 92.60 78.50L92.60 78.50L69 78.50L69 85.90L90.80 85.90Q91.90 85.90 92.60 86.65Q93.30 87.40 93.30 88.50L93.30 88.50Q93.30 89.50 92.60 90.30Q91.90 91.10 90.80 91.10L90.80 91.10L69 91.10L69 105.30Q69 106.60 68.10 107.40Q67.20 108.20 66 108.20ZM20.70 105.40L20.70 105.40Q15.80 105.40 13.05 104.20Q10.30 103 9.20 99.90Q8.10 96.80 8.10 91.20L8.10 91.20Q8.10 85.60 9.20 82.55Q10.30 79.50 13.05 78.30Q15.80 77.10 20.70 77.10L20.70 77.10Q25.60 77.10 28.35 78.30Q31.10 79.50 32.20 82.55Q33.30 85.60 33.30 91.20L33.30 91.20Q33.30 96.80 32.20 99.90Q31.10 103 28.35 104.20Q25.60 105.40 20.70 105.40ZM20.70 99.90L20.70 99.90Q23.60 99.90 25.10 99.30Q26.60 98.70 27.15 96.80Q27.70 94.90 27.70 91.20L27.70 91.20Q27.70 85.90 26.40 84.25Q25.10 82.60 20.70 82.60L20.70 82.60Q16.40 82.60 15.05 84.25Q13.70 85.90 13.70 91.20L13.70 91.20Q13.70 94.90 14.25 96.80Q14.80 98.70 16.30 99.30Q17.80 99.90 20.70 99.90ZM34.60 41.30L6.30 41.30Q5.10 41.30 4.30 40.45Q3.50 39.60 3.50 38.50L3.50 38.50Q3.50 37.40 4.30 36.55Q5.10 35.70 6.30 35.70L6.30 35.70L34.60 35.70Q35.80 35.70 36.55 36.55Q37.30 37.40 37.30 38.50L37.30 38.50Q37.30 39.60 36.55 40.45Q35.80 41.30 34.60 41.30L34.60 41.30ZM59.80 73.20L59.80 73.20L72.10 73.20Q72.90 71.40 74 68.75Q75.10 66.10 75.90 64L75.90 64L56.40 64Q57.20 66 58.15 68.60Q59.10 71.20 59.80 73.20ZM30.80 69.10L10.10 69.10Q8.90 69.10 8.15 68.25Q7.40 67.40 7.40 66.30L7.40 66.30Q7.40 65.10 8.15 64.25Q8.90 63.40 10.10 63.40L10.10 63.40L30.80 63.40Q32.10 63.40 32.85 64.25Q33.60 65.10 33.60 66.30L33.60 66.30Q33.60 67.40 32.85 68.25Q32.10 69.10 30.80 69.10L30.80 69.10ZM30.80 27.50L10.20 27.50Q9 27.50 8.20 26.65Q7.40 25.80 7.40 24.70L7.40 24.70Q7.40 23.50 8.20 22.65Q9 21.80 10.20 21.80L10.20 21.80L30.80 21.80Q32 21.80 32.80 22.65Q33.60 23.50 33.60 24.70L33.60 24.70Q33.60 25.80 32.80 26.65Q32 27.50 30.80 27.50L30.80 27.50ZM30.80 55.20L10.10 55.20Q8.90 55.20 8.15 54.35Q7.40 53.50 7.40 52.40L7.40 52.40Q7.40 51.30 8.15 50.45Q8.90 49.60 10.10 49.60L10.10 49.60L30.80 49.60Q32.10 49.60 32.85 50.45Q33.60 51.30 33.60 52.40L33.60 52.40Q33.60 53.50 32.85 54.35Q32.10 55.20 30.80 55.20L30.80 55.20ZM61.10 24.60L61.10 34.60L70.80 34.60L70.80 24.60L61.10 24.60ZM51.70 34.60L51.70 34.60L55.70 34.60L55.70 24.60L51.80 24.60Q48.30 24.60 47 25.50Q45.70 26.40 45.70 29.60L45.70 29.60Q45.70 32.70 47 33.65Q48.30 34.60 51.70 34.60ZM76.30 24.60L76.30 34.60L80.20 34.60Q83.70 34.60 84.95 33.65Q86.20 32.70 86.20 29.60L86.20 29.60Q86.20 26.40 85 25.50Q83.80 24.60 80.30 24.60L80.30 24.60L76.30 24.60Z"/>
  </g>
</svg>
